<svg width="64" height="64" viewBox="0 0 64 64" fill="none" xmlns="http://www.w3.org/2000/svg">
<path d="M31.855 0C27.6717 0 23.5294 0.844424 19.6646 2.48506C15.7998 4.12569 12.2881 6.53041 9.33011 9.56191C3.35614 15.6843 0 23.988 0 32.6464C0 47.0761 9.14239 59.3185 21.7888 63.6605C23.3816 63.9216 23.8912 62.9096 23.8912 62.0281V56.5109C15.0674 58.4697 13.188 52.1363 13.188 52.1363C11.7226 48.3493 9.65207 47.3373 9.65207 47.3373C6.75326 45.3132 9.87505 45.3785 9.87505 45.3785C13.0605 45.607 14.7489 48.7411 14.7489 48.7411C17.5202 53.7033 22.2029 52.2342 24.0187 51.4507C24.3054 49.3287 25.1336 47.8923 26.0255 47.0761C18.9537 46.2599 11.5315 43.4523 11.5315 31.0141C11.5315 27.3903 12.742 24.4848 14.8126 22.1669C14.494 21.3507 13.3791 17.9555 15.1311 13.5483C15.1311 13.5483 17.8069 12.6668 23.8912 16.8782C26.4078 16.16 29.1473 15.8009 31.855 15.8009C34.5627 15.8009 37.3022 16.16 39.8187 16.8782C45.9031 12.6668 48.5789 13.5483 48.5789 13.5483C50.3309 17.9555 49.216 21.3507 48.8974 22.1669C50.968 24.4848 52.1785 27.3903 52.1785 31.0141C52.1785 43.485 44.7244 46.2273 37.6208 47.0434C38.7675 48.0555 39.8187 50.0469 39.8187 53.083V62.0281C39.8187 62.9096 40.3284 63.9543 41.953 63.6605C54.5995 59.2858 63.71 47.0761 63.71 32.6464C63.71 28.3592 62.886 24.114 61.2852 20.1532C59.6843 16.1923 57.3379 12.5934 54.3799 9.56191C51.4219 6.53041 47.9102 4.12569 44.0454 2.48506C40.1806 0.844424 36.0383 0 31.855 0V0Z" fill="black"/>
</svg>
