<svg width="70" height="63" viewBox="0 0 70 63" fill="none" xmlns="http://www.w3.org/2000/svg">
<path d="M58.3332 47.25H52.4999V24.2812L34.9999 34.125L17.4999 24.2812V47.25H11.6666V15.75H15.1666L34.9999 26.9062L54.8332 15.75H58.3332M58.3332 10.5H11.6666C8.42909 10.5 5.83325 12.8363 5.83325 15.75V47.25C5.83325 48.6424 6.44783 49.9777 7.5418 50.9623C8.63576 51.9469 10.1195 52.5 11.6666 52.5H58.3332C59.8803 52.5 61.3641 51.9469 62.458 50.9623C63.552 49.9777 64.1666 48.6424 64.1666 47.25V15.75C64.1666 14.3576 63.552 13.0223 62.458 12.0377C61.3641 11.0531 59.8803 10.5 58.3332 10.5Z" fill="black"/>
</svg>
