<svg width="63" height="63" viewBox="0 0 63 63" fill="none" xmlns="http://www.w3.org/2000/svg">
<g clip-path="url(#clip0_6_41)">
<path d="M0 4.51237C0 2.01994 2.07112 0 4.62656 0H58.3734C60.9289 0 63 2.01994 63 4.51237V58.4876C63 60.9801 60.9289 63 58.3734 63H4.62656C2.07112 63 0 60.9801 0 58.4876V4.51237ZM19.4631 52.7389V24.2904H10.0091V52.7389H19.4631ZM14.7381 20.4041C18.0338 20.4041 20.0852 18.2227 20.0852 15.4901C20.0261 12.6984 18.0377 10.5761 14.8011 10.5761C11.5644 10.5761 9.45 12.7024 9.45 15.4901C9.45 18.2227 11.5014 20.4041 14.6751 20.4041H14.7381ZM34.0633 52.7389V36.8511C34.0633 36.0006 34.1263 35.1501 34.3783 34.5437C35.0595 32.8466 36.6148 31.0866 39.2293 31.0866C42.651 31.0866 44.0173 33.6932 44.0173 37.5204V52.7389H53.4712V36.4219C53.4712 27.6806 48.8092 23.6171 42.588 23.6171C37.5716 23.6171 35.3233 26.3734 34.0633 28.3146V28.413H34.0003C34.0212 28.3801 34.0422 28.3473 34.0633 28.3146V24.2904H24.6133C24.7314 26.9601 24.6133 52.7389 24.6133 52.7389H34.0633Z" fill="black"/>
</g>
<defs>
<clipPath id="clip0_6_41">
<rect width="63" height="63" fill="white"/>
</clipPath>
</defs>
</svg>
