<svg width="64" height="64" viewBox="0 0 64 64" fill="none" xmlns="http://www.w3.org/2000/svg">
<path d="M40.8557 35.0677C42.3023 35.5193 43.6883 36.1433 44.9836 36.9259L44.9006 36.8781C46.3158 37.502 47.5384 38.232 48.6539 39.0894L48.6138 39.0602C48.6673 39.2222 48.6994 39.4053 48.6994 39.5991L48.6967 39.6841V39.6814C48.6566 40.8202 48.4025 41.8901 47.9718 42.8643L47.9932 42.8086C47.3752 44.0376 46.3452 44.9853 45.0852 45.4897L45.0478 45.503C43.744 46.1794 42.3022 46.5525 40.8317 46.594H40.8156C38.0086 46.2359 35.2959 45.3512 32.8221 43.9872L32.9371 44.0456C30.3095 42.8644 27.9201 41.2193 25.8853 39.1903L25.8826 39.1877C23.6632 36.8946 21.6509 34.4128 19.8687 31.7707L19.743 31.5742C17.9745 29.2803 16.9485 26.5081 16.8003 23.6236L16.7976 23.5891V23.2599C16.8369 22.0278 17.1284 20.8164 17.6546 19.6997C18.1807 18.5829 18.9304 17.5841 19.858 16.7641L19.8661 16.7561C20.4391 16.1896 21.2109 15.8652 22.0196 15.8509H22.0223C22.2925 15.8589 22.552 15.8801 22.8034 15.9173L22.7687 15.912C23.0014 15.9465 23.2716 15.9677 23.5498 15.973H23.5579C23.9473 15.9354 24.3381 16.031 24.6654 16.2438L24.66 16.2411C24.9463 16.5544 25.1657 16.934 25.2967 17.3508L25.3021 17.372C25.5232 17.9206 25.9798 19.1276 26.6718 20.9929C27.0329 21.8265 27.3861 22.8538 27.6696 23.9103L27.7071 24.0776C27.5141 25.0015 27.0116 25.8333 26.2812 26.4375L26.2732 26.4428C25.319 27.4445 24.842 28.0816 24.842 28.3542C24.8522 28.5776 24.9274 28.7934 25.0586 28.9753L25.056 28.9727C26.0906 31.0952 27.5212 33.0039 29.2721 34.5978L29.2855 34.6111C31.1184 36.2496 33.1732 37.6256 35.3903 38.6992L35.5481 38.7682C35.8192 38.9428 36.1322 39.0427 36.455 39.0576H36.4604C36.8759 39.0576 37.6232 38.3922 38.7022 37.0613C39.7812 35.7305 40.4981 35.065 40.8531 35.065L40.8557 35.0677ZM32.4369 56.878H32.4957C36.0084 56.883 39.4836 56.1606 42.6989 54.757L42.5358 54.8207C48.8385 52.182 53.7529 47.3055 56.3478 41.2184L56.412 41.0512C57.7229 38.0966 58.4853 34.6509 58.4853 31.03C58.4853 27.4091 57.7229 23.9634 56.3478 20.8442L56.412 21.0088C53.7529 14.7545 48.8385 9.87802 42.7043 7.30304L42.5358 7.23933C39.5583 5.93856 36.0858 5.182 32.4369 5.182C28.7879 5.182 25.3155 5.93856 22.1721 7.30304L22.338 7.23933C16.0352 9.87802 11.1208 14.7545 8.52588 20.8416L8.46167 21.0088C7.08234 24.1831 6.37658 27.6051 6.38839 31.0619C6.37975 36.5273 8.14202 41.8506 11.4151 46.2463L11.3643 46.1773L8.08714 55.7684L18.1245 52.5988C22.3176 55.4012 27.261 56.8918 32.3165 56.878H32.4422H32.4369ZM32.4369 0.000180342H32.5251C36.8804 0.000180342 41.0216 0.90806 44.7642 2.54596L44.5689 2.46898C52.1264 5.64655 58.0198 11.4947 61.1445 18.7922L61.2221 18.994C62.7951 22.5432 63.71 26.6817 63.71 31.0327C63.71 35.3836 62.7951 39.5221 61.1445 43.2678L61.2221 43.0714C58.0198 50.5707 52.1264 56.4188 44.7722 59.5194L44.5689 59.5964C41.0189 61.1573 36.8777 62.0652 32.5225 62.0652H32.4315H32.4369H32.2951C26.7868 62.0652 21.6157 60.629 17.1427 58.1151L17.2952 58.1947L0 63.711L5.64201 47.0427C2.69691 42.2354 1.14716 36.7143 1.16371 31.0884C1.16371 26.7189 2.07863 22.5618 3.72924 18.7949L3.65165 18.994C6.85387 11.4947 12.7474 5.64655 20.1015 2.54596L20.3048 2.46898C24.1045 0.826558 28.2067 -0.0141573 32.3513 0.000180342H32.4395H32.4342H32.4369Z" fill="black"/>
</svg>
